<?xml version="1.0" standalone="no"?>
<!DOCTYPE svg PUBLIC "-//W3C//DTD SVG 20010904//EN"
 "http://www.w3.org/TR/2001/REC-SVG-20010904/DTD/svg10.dtd">
<svg version="1.0" xmlns="http://www.w3.org/2000/svg"
 width="512.000000pt" height="512.000000pt" viewBox="0 0 512.000000 512.000000"
 preserveAspectRatio="xMidYMid meet">

<g transform="translate(0.000000,512.000000) scale(0.100000,-0.100000)"
fill="#000000" stroke="none">
<path d="M1052 5100 c-109 -29 -187 -74 -272 -160 -87 -86 -131 -163 -160
-276 -20 -76 -20 -118 -20 -2104 0 -1986 0 -2028 20 -2104 29 -113 73 -190
160 -276 86 -87 163 -131 276 -160 75 -20 117 -20 1664 -20 1747 0 1634 -4
1713 61 21 17 50 54 65 83 l27 51 0 2365 0 2365 -30 55 c-33 60 -96 114 -153
130 -25 6 -561 10 -1627 9 -1533 0 -1593 -1 -1663 -19z m3279 -179 c14 -17 19
-39 19 -82 l0 -59 -1239 0 c-796 0 -1249 -4 -1266 -10 -30 -11 -54 -60 -47
-96 2 -13 16 -33 30 -44 24 -20 45 -20 1273 -20 l1249 0 0 -85 0 -85 -1626 0
c-1216 0 -1631 -3 -1647 -12 -53 -28 -64 -92 -22 -133 l24 -25 1636 0 1635 0
0 -85 0 -85 -1633 2 -1632 3 -70 34 c-84 41 -162 117 -200 195 -117 240 16
530 276 600 46 13 279 15 1637 13 l1584 -2 19 -24z m-3386 -937 c33 -16 83
-33 110 -39 l50 -12 3 -1877 2 -1877 -22 6 c-106 31 -213 115 -261 203 -60
111 -57 1 -57 1940 l0 1773 58 -45 c31 -25 84 -57 117 -72z m805 -62 c0 -4
-106 -113 -235 -242 l-235 -235 0 236 c0 130 3 239 7 242 9 10 463 9 463 -1z
m2242 -349 l358 -358 0 -1165 0 -1165 -357 -357 -358 -358 -815 0 -815 0 -362
362 -363 363 0 1155 0 1155 362 362 363 363 815 0 814 0 358 -357z m358 120
l0 -238 -230 230 c-126 126 -230 233 -230 237 0 5 104 8 230 8 l230 0 0 -237z
m-2861 -3252 c108 -109 212 -215 230 -235 l35 -36 -237 0 -237 0 0 235 c0 129
3 235 6 235 4 0 95 -89 203 -199z m2861 -10 c0 -191 -2 -211 -19 -232 -19 -24
-22 -24 -238 -27 l-218 -3 235 236 c129 129 236 235 237 235 2 0 3 -94 3 -209z"/>
<path d="M1146 4758 c-40 -35 -43 -78 -11 -116 l27 -32 204 0 c204 0 205 0
229 25 15 15 25 36 25 54 0 83 -24 91 -259 91 -183 0 -191 -1 -215 -22z"/>
<path d="M2645 3486 c-139 -20 -278 -64 -416 -131 l-36 -17 -50 36 c-114 82
-197 14 -149 -122 l15 -41 -89 -86 c-183 -180 -301 -394 -356 -647 -22 -101
-29 -295 -15 -398 11 -83 11 -85 -11 -100 -61 -41 -82 -67 -82 -105 0 -56 38
-85 110 -85 39 0 54 -4 54 -14 0 -25 108 -232 161 -306 175 -248 458 -432 769
-501 47 -10 102 -19 122 -19 38 0 62 -17 73 -50 9 -27 60 -53 88 -44 28 8 67
44 67 61 0 19 32 29 130 43 178 25 389 113 546 228 170 126 341 340 416 524
l32 78 53 0 c44 0 59 5 78 25 49 48 28 112 -53 165 -23 15 -23 16 -11 115 41
363 -98 751 -369 1024 l-93 94 16 45 c22 65 19 99 -10 127 -35 36 -77 33 -141
-11 l-52 -36 -76 36 c-217 103 -491 146 -721 112z m445 -194 c78 -21 190 -61
190 -67 0 -8 -451 -325 -462 -325 -6 0 -88 55 -182 122 -282 201 -280 199
-265 209 26 17 171 61 242 75 106 20 379 12 477 -14z m-433 -496 c9 -8 -20
-34 -119 -104 -72 -52 -136 -96 -143 -98 -7 -3 -39 85 -89 243 -44 136 -81
254 -84 261 -4 11 402 -271 435 -302z m677 48 c-42 -131 -79 -242 -83 -247 -4
-4 -69 37 -144 90 -108 77 -134 100 -124 109 31 31 422 303 425 296 1 -5 -32
-116 -74 -248z m-1185 -76 c44 -141 84 -263 87 -271 4 -11 -68 -67 -255 -201
-143 -102 -262 -186 -265 -186 -3 0 -6 44 -6 98 0 284 107 559 293 759 33 35
61 62 62 61 1 -2 39 -118 84 -260z m1553 117 c73 -96 148 -248 183 -369 31
-110 52 -305 39 -363 l-9 -42 -245 175 c-135 96 -251 181 -258 188 -11 10 1
56 63 252 42 131 81 254 87 272 l10 34 35 -34 c19 -18 62 -69 95 -113z m-696
-336 c101 -72 184 -138 184 -146 0 -16 -116 -383 -133 -420 -10 -23 -11 -23
-242 -23 l-231 0 -72 227 c-67 210 -71 227 -54 238 9 7 94 67 187 134 94 66
172 121 174 121 2 0 86 -59 187 -131z m648 -461 l179 -128 -301 0 -301 0 13
43 c7 23 32 101 56 174 l44 132 66 -47 c36 -25 146 -104 244 -174z m-1305 46
c29 -91 51 -167 49 -170 -3 -2 -136 -3 -296 -2 l-291 3 236 168 c129 92 238
167 242 167 4 0 31 -75 60 -166z m160 -501 c27 -87 75 -236 105 -332 31 -96
54 -176 52 -178 -2 -2 -35 3 -74 12 -320 67 -594 271 -747 557 -25 46 -45 86
-45 91 0 4 148 7 329 7 l330 0 50 -157z m476 137 c-4 -11 -42 -136 -86 -277
-43 -141 -80 -258 -82 -259 -1 -1 -40 118 -86 264 -46 147 -86 273 -89 280 -3
9 36 12 173 12 172 0 176 0 170 -20z m840 -16 c-66 -157 -239 -359 -396 -460
-126 -82 -293 -147 -425 -168 l-41 -6 69 228 c38 125 85 275 104 335 l36 107
334 0 334 0 -15 -36z"/>
</g>
</svg>
